SplineFontDB: 3.2
FontName: Liver
FullName: Liver
FamilyName: Liver
Weight: Regular
Copyright: Copyright (c) 2024, Chris DeBoy\n\nThis is free and unencumbered typeface released into the public domain.\n\nAnyone is free to copy, modify, publish, use, compile, sell, or\ndistribute this typeface, either in source code form or as a compiled\nfont, for any purpose, commercial or non-commercial, and by any\nmeans.\n\nIn jurisdictions that recognize copyright laws, the author or authors\nof this software dedicate any and all copyright interest in the\nsoftware to the public domain. We make this dedication for the benefit\nof the public at large and to the detriment of our heirs and\nsuccessors. We intend this dedication to be an overt act of\nrelinquishment in perpetuity of all present and future rights to this\nsoftware under copyright law.\n\nTHE SOFTWARE IS PROVIDED "AS IS", WITHOUT WARRANTY OF ANY KIND,\nEXPRESS OR IMPLIED, INCLUDING BUT NOT LIMITED TO THE WARRANTIES OF\nMERCHANTABILITY, FITNESS FOR A PARTICULAR PURPOSE AND NONINFRINGEMENT.\nIN NO EVENT SHALL THE AUTHORS BE LIABLE FOR ANY CLAIM, DAMAGES OR\nOTHER LIABILITY, WHETHER IN AN ACTION OF CONTRACT, TORT OR OTHERWISE,\nARISING FROM, OUT OF OR IN CONNECTION WITH THE SOFTWARE OR THE USE OR\nOTHER DEALINGS IN THE SOFTWARE.\n\nFor more information, please refer to <https://unlicense.org>
UComments: "2024-6-23: Created with FontForge (http://fontforge.org)"
Version: 001.000
ItalicAngle: 0
UnderlinePosition: -102
UnderlineWidth: 51
Ascent: 819
Descent: 205
InvalidEm: 0
LayerCount: 2
Layer: 0 0 "Back" 1
Layer: 1 0 "Fore" 0
XUID: [1021 377 -615690236 10477743]
FSType: 0
OS2Version: 0
OS2_WeightWidthSlopeOnly: 0
OS2_UseTypoMetrics: 1
CreationTime: 1719206776
ModificationTime: 1719614380
PfmFamily: 17
TTFWeight: 400
TTFWidth: 5
LineGap: 92
VLineGap: 0
OS2TypoAscent: 0
OS2TypoAOffset: 1
OS2TypoDescent: 0
OS2TypoDOffset: 1
OS2TypoLinegap: 92
OS2WinAscent: 0
OS2WinAOffset: 1
OS2WinDescent: 0
OS2WinDOffset: 1

StartChar: exclam
Encoding: 33 33 0
Width: 128
Flags: HW
HStem: 51 64<0 64> 543 20G<0 64>
VStem: 0 64<51 115 284.984 563>
LayerCount: 2
Fore
SplineSet
0 563 m 1
 64 563 l 1
 64 371 l 1
 48 179 l 1
 16 179 l 1
 0 371 l 1
 0 563 l 1
0 115 m 1
 64 115 l 1
 64 51 l 1
 0 51 l 1
 0 115 l 1
EndSplineSet
Validated: 1
EndChar

StartChar: quotedbl
Encoding: 34 34 1
Width: 256
Flags: HW
HStem: 435 192<16 48 144 176>
VStem: 0 64<505.656 627> 128 64<505.656 627>
LayerCount: 2
Fore
SplineSet
0 627 m 1
 64 627 l 1
 64 563 l 1
 48 435 l 1
 16 435 l 1
 0 563 l 1
 0 627 l 1
128 627 m 1
 192 627 l 1
 192 563 l 1
 176 435 l 1
 144 435 l 1
 128 563 l 1
 128 627 l 1
EndSplineSet
Validated: 1
EndChar

StartChar: numbersign
Encoding: 35 35 2
Width: 448
Flags: HW
HStem: 51 21G<64 128 256 320> 179 64<0 64 128 256 320 384> 371 64<0 64 128 256 320 384> 543 20G<64 128 256 320>
VStem: 64 64<51 179 243 371 435 563> 256 64<51 179 243 371 435 563>
LayerCount: 2
Fore
SplineSet
64 563 m 1
 128 563 l 1
 128 435 l 1
 256 435 l 1
 256 563 l 1
 320 563 l 1
 320 435 l 1
 384 435 l 1
 384 371 l 1
 320 371 l 1
 320 243 l 1
 384 243 l 1
 384 179 l 1
 320 179 l 1
 320 51 l 1
 256 51 l 1
 256 179 l 1
 128 179 l 1
 128 51 l 1
 64 51 l 1
 64 179 l 1
 0 179 l 1
 0 243 l 1
 64 243 l 1
 64 371 l 1
 0 371 l 1
 0 435 l 1
 64 435 l 1
 64 563 l 1
128 371 m 1
 128 243 l 1
 256 243 l 1
 256 371 l 1
 128 371 l 1
EndSplineSet
Validated: 1
EndChar

StartChar: dollar
Encoding: 36 36 3
Width: 384
Flags: HW
HStem: 114.998 128.003<127.999 190.085> 307.001 63.9961<69.7083 250.29> 434.997 128.003<129.913 191.999>
VStem: 0 64<379.932 426.322> 127.999 64<114.998 179.873 498.246 563> 255.999 64<251.675 298.066>
CounterMasks: 1 e0
LayerCount: 2
Fore
SplineSet
128 563 m 1
 192 563 l 1
 192 498 l 1
 192 498 192 498 193 498 c 0
 199 498 258 497 288 467 c 1
 288 435 l 1
 160 435 l 2
 80 435 64 419 64 403 c 0
 64 387 80 371 160 371 c 0
 288 371 320 339 320 275 c 0
 320 217 293 185 192 180 c 1
 192 115 l 1
 128 115 l 1
 128 180 l 1
 128 180 128 180 127 180 c 0
 121 180 62 181 32 211 c 1
 32 243 l 1
 160 243 l 2
 240 243 256 259 256 275 c 0
 256 291 240 307 160 307 c 0
 32 307 0 339 0 403 c 0
 0 461 27 493 128 498 c 1
 128 563 l 1
EndSplineSet
Validated: 1
EndChar

StartChar: percent
Encoding: 37 37 4
Width: 576
Flags: HW
HStem: 51.001 64<390.878 441.118> 243 64<390.921 441.087> 307.001 63.999<70.9155 121.088> 499 64<70.8851 121.119>
VStem: 0 63.999<374.513 495.488> 127.999 64.001<374.488 495.512> 320.001 63.999<118.525 239.476> 447.997 64.0039<118.513 239.488>
LayerCount: 2
Fore
SplineSet
0 435 m 0
 0 531 32 563 96 563 c 0
 160 563 192 531 192 435 c 0
 192 339 160 307 96 307 c 0
 32 307 -0 339 0 435 c 0
384 563 m 1
 448 563 l 1
 128 51 l 1
 64 51 l 1
 384 563 l 1
96 499 m 0
 80 499 64 483 64 435 c 0
 64 387 80 371 96 371 c 0
 112 371 128 387 128 435 c 0
 128 483 112 499 96 499 c 0
320 179 m 0
 320 275 352 307 416 307 c 0
 480 307 512 275 512 179 c 0
 512 83 480 51 416 51 c 0
 352 51 320 83 320 179 c 0
416 243 m 0
 400 243 384 227 384 179 c 0
 384 131 400 115 416 115 c 0
 432 115 448 131 448 179 c 0
 448 227 432 243 416 243 c 0
EndSplineSet
Validated: 1
EndChar

StartChar: ampersand
Encoding: 38 38 5
Width: 448
Flags: HW
HStem: 51 64.002<83.2691 248.751> 307.374 63.627<136.676 146.251 209.251 247.156> 499.002 64<137.853 246.148>
VStem: 0 64<134.501 289.112> 64 64<379.275 490.113> 256.001 64<379.963 489.935> 320.001 64<140.747 242.997>
LayerCount: 2
Fore
SplineSet
192 563 m 1
 192 563 l 1
 288 563 320 531 320 435 c 0
 320 345 292 311 209 307 c 1
 301 140 l 1
 316 158 320 190 320 243 c 1
 384 243 l 1
 384 152 374 102 335 76 c 1
 384 -13 l 1
 320 -13 l 1
 282 57 l 1
 258 53 228 51 192 51 c 0
 32 51 0 83 0 211 c 0
 0 307 18 349 95 364 c 1
 73 384 64 419 64 467 c 0
 64 531 96 563 192 563 c 1
192 499 m 0
 144 499 128 483 128 435 c 0
 128 387 144 371 192 371 c 0
 240 371 256 387 256 435 c 0
 256 483 240 499 192 499 c 0
249 118 m 1
 215 180 181 244 146 306 c 1
 75 300 64 278 64 211 c 0
 64 131 80 115 192 115 c 0
 215 115 233 116 249 118 c 1
EndSplineSet
Validated: 1
EndChar

StartChar: quotesingle
Encoding: 39 39 6
Width: 128
Flags: HW
HStem: 435 192<16 48>
VStem: 0 64<505.656 627>
LayerCount: 2
Fore
SplineSet
0 627 m 1
 64 627 l 1
 64 563 l 1
 48 435 l 1
 16 435 l 1
 0 563 l 1
 0 627 l 1
EndSplineSet
Validated: 1
EndChar

StartChar: parenleft
Encoding: 40 40 7
Width: 256
Flags: HW
HStem: -13.6465 64.6465<109.788 192.436> 562.283 64.2705<109.788 192.436>
VStem: 0 64.1455<101.814 509.735>
LayerCount: 2
Fore
SplineSet
192 627 m 1
 192 562 l 1
 80 562 64 514 64 306 c 0
 64 101 79 51 186 51 c 0
 188 51 190 51 192 51 c 1
 192 -14 l 1
 191 -14 190 -14 188 -14 c 0
 32 -14 0 51 0 306 c 0
 0 562 32 626 192 627 c 1
EndSplineSet
Validated: 1
EndChar

StartChar: parenright
Encoding: 41 41 8
Width: 256
Flags: HW
HStem: -13.2344 64.2354<0 82.7639> 563 64.3604<0 82.7638>
VStem: 128.471 64.2344<104.257 507.94>
LayerCount: 2
Fore
SplineSet
0 627 m 1
 161 627 193 563 193 306 c 0
 193 53 162 -13 7 -13 c 0
 5 -13 2 -13 0 -13 c 1
 0 51 l 1
 2 51 4 51 6 51 c 0
 113 51 128 101 128 306 c 0
 128 515 112 563 0 563 c 1
 0 627 l 1
EndSplineSet
Validated: 1
EndChar

StartChar: asterisk
Encoding: 42 42 9
Width: 384
Flags: HW
HStem: 179 320<128 192> 415 20G<0 50.1961 269.804 320>
VStem: 128 64<179 294 384 499>
LayerCount: 2
Fore
SplineSet
128 499 m 1xa0
 192 499 l 1xa0
 192 384 l 1
 320 435 l 1x60
 320 371 l 1
 240 339 l 1
 320 307 l 1
 320 243 l 1
 192 294 l 1
 192 179 l 1
 128 179 l 1xa0
 128 294 l 1
 0 243 l 1
 0 307 l 1
 80 339 l 1
 0 371 l 1
 0 435 l 1x60
 128 384 l 1
 128 499 l 1xa0
EndSplineSet
Validated: 1
EndChar

StartChar: plus
Encoding: 43 43 10
Width: 384
Flags: HW
HStem: 307 64<0 128 192 320>
VStem: 128 64<179 307 371 499>
LayerCount: 2
Fore
SplineSet
128 499 m 1
 192 499 l 1
 192 371 l 1
 320 371 l 1
 320 307 l 1
 192 307 l 1
 192 179 l 1
 128 179 l 1
 128 307 l 1
 0 307 l 1
 0 371 l 1
 128 371 l 1
 128 499 l 1
EndSplineSet
Validated: 1
EndChar

StartChar: comma
Encoding: 44 44 11
Width: 128
Flags: HW
HStem: -27 17<0 17.7649> 51 64<0 32>
VStem: 0 64<-15.8306 -2.18604 51 115> 32 32<-1.42806 51>
LayerCount: 2
Fore
SplineSet
0 115 m 1xe0
 64 115 l 1
 64 51 l 1xe0
 64 43 l 2xd0
 64 23 63 -2 43 -15 c 0
 33 -21 17 -25 0 -27 c 1
 0 -10 l 1xe0
 7 -8 13 -6 18 -2 c 0
 32 10 32 35 32 51 c 1xd0
 0 51 l 1
 0 115 l 1xe0
EndSplineSet
Validated: 1
EndChar

StartChar: hyphen
Encoding: 45 45 12
Width: 384
Flags: HW
HStem: 307 64<0 320>
VStem: 0 320<307 371>
LayerCount: 2
Fore
SplineSet
0 307 m 1
 0 371 l 1
 320 371 l 1
 320 307 l 1
 0 307 l 1
EndSplineSet
Validated: 1
EndChar

StartChar: period
Encoding: 46 46 13
Width: 128
Flags: HW
HStem: 51 64<0 64>
VStem: 0 64<51 115>
LayerCount: 2
Fore
SplineSet
0 115 m 1
 64 115 l 1
 64 51 l 1
 0 51 l 1
 0 115 l 1
EndSplineSet
Validated: 1
EndChar

StartChar: slash
Encoding: 47 47 14
Width: 384
Flags: HW
HStem: 51 21G<0 74> 543 20G<246 320>
VStem: 0 320
LayerCount: 2
Fore
SplineSet
320 563 m 1
 64 51 l 1
 0 51 l 1
 256 563 l 1
 320 563 l 1
EndSplineSet
Validated: 1
EndChar

StartChar: zero
Encoding: 48 48 15
Width: 448
Flags: HW
HStem: 51 64<93.7893 290.044> 499 64<94.5004 289.5>
VStem: 0 63.9863<243.875 465.633> 320.014 63.9863<148.367 370.125>
LayerCount: 2
Fore
SplineSet
192 563 m 0
 352 563 384 531 384 307 c 0
 384 83 352 51 192 51 c 0
 32 51 0 83 0 307 c 0
 0 531 32 563 192 563 c 0
192 499 m 2
 192 499 l 2
 80 499 64 483 64 307 c 0
 64 283 64 262 65 244 c 1
 313 430 l 1
 301 491 269 499 192 499 c 2
319 370 m 1
 71 184 l 1
 83 123 115 115 192 115 c 0
 304 115 320 131 320 307 c 0
 320 331 320 352 319 370 c 1
EndSplineSet
Validated: 1
EndChar

StartChar: one
Encoding: 49 49 16
Width: 256
Flags: HW
HStem: 51 64<0 64 128 192> 435.75 63.375<0 55.7218> 543 20G<64 128>
VStem: 64 64<115 463.625 507.395 563>
LayerCount: 2
Fore
SplineSet
64 563 m 1
 128 563 l 1
 128 115 l 1
 192 115 l 1
 192 51 l 1
 0 51 l 1
 0 115 l 1
 64 115 l 1
 64 464 l 1
 52 444 32 438 0 436 c 1
 0 499 l 1
 48 499 64 515 64 563 c 1
EndSplineSet
Validated: 1
EndChar

StartChar: two
Encoding: 50 50 17
Width: 448
Flags: HW
HStem: 51 64<64 384> 243 64<89.7946 298.761> 435 21G<0 64> 499 64<76.5707 298.76>
VStem: 0 64<115 217.205 435 482.461> 320 64<326.498 479.502>
LayerCount: 2
Fore
SplineSet
192 563 m 0
 352 563 384 531 384 403 c 0
 384 275 352 243 192 243 c 0
 80 243 64 227 64 115 c 1
 384 115 l 1
 384 51 l 1
 0 51 l 1
 0 115 l 2
 0 275 32 307 192 307 c 0
 304 307 320 323 320 403 c 0
 320 483 304 499 192 499 c 0
 80 499 64 483 64 435 c 1
 0 435 l 1
 0 531 32 563 192 563 c 0
EndSplineSet
Validated: 1
EndChar

StartChar: three
Encoding: 51 51 18
Width: 448
Flags: HW
HStem: 51 64<76.3318 300.731> 307 63.75<213 299.52> 499 64<0 298.625>
VStem: -0 64<131.539 179> 320 64<134.498 288.044>
LayerCount: 2
Fore
SplineSet
0 563 m 1
 384 563 l 1
 384 499 l 1
 213 371 l 1
 355 368 384 333 384 211 c 0
 384 83 352 51 192 51 c 0
 32 51 -0 83 -0 179 c 1
 64 179 l 1
 64 131 80 115 192 115 c 0
 304 115 320 131 320 211 c 0
 320 291 304 307 192 307 c 2
 128 307 l 1
 128 371 l 1
 299 499 l 1
 0 499 l 1
 0 563 l 1
EndSplineSet
Validated: 1
EndChar

StartChar: four
Encoding: 52 52 19
Width: 448
Flags: HW
HStem: 51 21G<256 320> 179 64<64 256 320 384> 543 20G<120 192>
VStem: 256 64<51 179 243 499>
LayerCount: 2
Fore
SplineSet
128 563 m 1
 192 563 l 1
 64 243 l 1
 256 243 l 1
 256 499 l 1
 320 499 l 1
 320 243 l 1
 384 243 l 1
 384 179 l 1
 320 179 l 1
 320 51 l 1
 256 51 l 1
 256 179 l 1
 0 179 l 1
 0 243 l 1
 128 563 l 1
EndSplineSet
Validated: 1
EndChar

StartChar: five
Encoding: 53 53 20
Width: 448
Flags: HW
HStem: 51 64<76.3318 300.731> 307 64<64 298.761> 499 64<64 384>
VStem: 0 64<131.539 179 371 499> 319.999 64.001<134.498 287.502>
LayerCount: 2
Fore
SplineSet
192 51 m 0
 32 51 0 83 0 179 c 1
 64 179 l 1
 64 131 80 115 192 115 c 0
 304 115 320 131 320 211 c 0
 320 291 304 307 192 307 c 2
 0 307 l 1
 0 563 l 1
 384 563 l 1
 384 499 l 1
 64 499 l 1
 64 371 l 1
 192 371 l 2
 352 371 384 339 384 211 c 0
 384 83 352 51 192 51 c 0
EndSplineSet
Validated: 1
EndChar

StartChar: six
Encoding: 54 54 21
Width: 448
Flags: HW
HStem: 51 64<87.8973 300.731> 307 64<95.5888 302.851> 435 21G<320 384> 499 64<94.5004 307.429>
VStem: 0 64<137.282 465.633> 320 64<134.499 287.501 435 482.461>
LayerCount: 2
Fore
SplineSet
192 563 m 0
 352 563 384 531 384 435 c 1
 320 435 l 1
 320 483 304 499 192 499 c 0
 82 499 65 483 64 314 c 1
 85 358 132 371 224 371 c 0
 352 371 384 339 384 211 c 0
 384 83 352 51 192 51 c 0
 32 51 0 83 0 307 c 0
 0 531 32 563 192 563 c 0
192 307 m 0
 80 307 64 291 64 243 c 0
 64 131 80 115 192 115 c 0
 304 115 320 131 320 211 c 0
 320 291 304 307 192 307 c 0
EndSplineSet
Validated: 1
EndChar

StartChar: seven
Encoding: 55 55 22
Width: 448
Flags: HW
HStem: 51 21G<64 139.429> 499 64<0 320>
LayerCount: 2
Fore
SplineSet
0 563 m 1
 384 563 l 1
 384 499 l 1
 128 51 l 1
 64 51 l 1
 320 499 l 1
 0 499 l 1
 0 563 l 1
EndSplineSet
Validated: 1
EndChar

StartChar: eight
Encoding: 56 56 23
Width: 448
Flags: HW
HStem: 51 64<83.269 300.731> 307 64<138.598 245.402> 499 64<137.065 246.935>
VStem: 0 64<132.947 288.504> 64 64<379.124 489.935> 256 64<379.124 489.935> 320 64<132.946 288.504>
LayerCount: 2
Fore
SplineSet
64 435 m 0xe8
 64 531 96 563 192 563 c 0
 288 563 320 531 320 435 c 0xec
 320 394 312 366 291 348 c 1
 366 334 384 295 384 213 c 0
 384 83 352 51 192 51 c 0
 32 51 0 83 0 213 c 0xf2
 0 295 18 334 93 348 c 1
 72 366 64 394 64 435 c 0xe8
192 499 m 0
 144 499 128 483 128 435 c 0
 128 387 144 371 192 371 c 0
 240 371 256 387 256 435 c 0
 256 483 240 499 192 499 c 0
192 307 m 0
 80 307 64 291 64 211 c 0
 64 131 80 115 192 115 c 0
 304 115 320 131 320 211 c 0xf2
 320 291 304 307 192 307 c 0
EndSplineSet
Validated: 1
EndChar

StartChar: nine
Encoding: 57 57 24
Width: 448
Flags: HW
HStem: 51 64.001<57.3125 289.499> 243 64<81.1492 288.411> 498.999 64.001<85.2393 294.205>
VStem: 0 64<326.498 479.501> 320 63.999<148.368 476.718>
LayerCount: 2
Fore
SplineSet
192 51 m 0
 96 51 32 83 32 83 c 1
 32 115 l 1
 192 115 l 2
 302 115 319 131 320 300 c 1
 299 256 252 243 160 243 c 0
 32 243 0 275 0 403 c 0
 0 531 32 563 192 563 c 0
 352 563 384 531 384 307 c 0
 384 83 352 51 192 51 c 0
192 307 m 0
 304 307 320 323 320 371 c 0
 320 483 304 499 192 499 c 0
 80 499 64 483 64 403 c 0
 64 323 80 307 192 307 c 0
EndSplineSet
Validated: 1
EndChar

StartChar: colon
Encoding: 58 58 25
Width: 128
Flags: HW
HStem: 51 64<0 64> 371 64<0 64>
VStem: 0 64<51 115 371 435>
LayerCount: 2
Fore
SplineSet
0 435 m 1
 64 435 l 1
 64 371 l 1
 0 371 l 1
 0 435 l 1
0 115 m 1
 64 115 l 1
 64 51 l 1
 0 51 l 1
 0 115 l 1
EndSplineSet
Validated: 1
EndChar

StartChar: semicolon
Encoding: 59 59 26
Width: 128
Flags: HW
HStem: -27 17<0 17.7649> 51 64<0 32> 371 64<0 64>
VStem: 0 64<-15.2798 -2.18604 51 115 371 435> 32 32<-1.42806 51>
LayerCount: 2
Fore
SplineSet
0 435 m 1xf0
 64 435 l 1
 64 371 l 1
 0 371 l 1
 0 435 l 1xf0
0 115 m 1
 64 115 l 1
 64 51 l 1xf0
 64 43 l 2xe8
 64 23 62 -2 42 -15 c 0
 32 -21 17 -25 0 -27 c 1
 0 -10 l 1xf0
 7 -8 13 -6 18 -2 c 0
 32 10 32 35 32 51 c 1xe8
 0 51 l 1
 0 115 l 1
EndSplineSet
Validated: 1
EndChar

StartChar: less
Encoding: 60 60 27
Width: 384
Flags: HW
VStem: -0 320
LayerCount: 2
Fore
SplineSet
320 499 m 1
 320 435 l 1
 64 307 l 1
 320 179 l 1
 320 115 l 1
 -0 275 l 1
 -0 339 l 1
 320 499 l 1
EndSplineSet
Validated: 1
EndChar

StartChar: equal
Encoding: 61 61 28
Width: 384
Flags: HW
HStem: 243 64<0 320> 371 64<0 320>
VStem: 0 320<243 307 371 435>
LayerCount: 2
Fore
SplineSet
0 435 m 1
 320 435 l 1
 320 371 l 1
 0 371 l 1
 0 435 l 1
0 307 m 1
 320 307 l 1
 320 243 l 1
 0 243 l 1
 0 307 l 1
EndSplineSet
Validated: 1
EndChar

StartChar: greater
Encoding: 62 62 29
Width: 384
Flags: HW
VStem: 0 320
LayerCount: 2
Fore
SplineSet
0 499 m 1
 320 339 l 1
 320 275 l 1
 0 115 l 1
 0 179 l 1
 256 307 l 1
 0 435 l 1
 0 499 l 1
EndSplineSet
Validated: 1
EndChar

StartChar: question
Encoding: 63 63 30
Width: 384
Flags: HW
HStem: 51 64<128.5 192.5> 179 128<128.5 189.998> 435 21G<0 64.5> 499 64<76.1485 240.839>
VStem: 0 64.5<435 485.846> 128.5 64<51 115 179 245.674> 256.5 64<321.942 483.34>
LayerCount: 2
Fore
SplineSet
160 563 m 0
 288 563 320 531 320 403 c 0
 320 286 294 249 192 244 c 1
 192 179 l 1
 128 179 l 1
 128 307 l 1
 160 307 l 1
 168 307 l 2
 242 308 256 326 256 403 c 0
 256 483 240 499 160 499 c 0
 81 499 64 483 64 435 c 1
 0 435 l 1
 0 531 32 563 160 563 c 0
128 115 m 1
 192 115 l 1
 192 51 l 1
 128 51 l 1
 128 115 l 1
EndSplineSet
Validated: 1
EndChar

StartChar: at
Encoding: 64 64 31
Width: 576
Flags: HW
HStem: 51 64.001<104.82 390.69> 179.003 63.9971<201.151 311.725 384.002 438.148> 370.999 64<201.067 310.937> 499 64<103.95 408.054>
VStem: 0.00390625 64<154.919 459.022> 128.004 63.9951<252.039 361.907> 320 64.002<251.247 361.124> 448.001 63.999<252.831 458.151>
LayerCount: 2
Fore
SplineSet
0 307 m 2
 0 531 32 563 256 563 c 0
 480 563 512 531 512 307 c 0
 512 211 480 179 384 179 c 2
 320 179 l 1
 320 203 l 1
 320 203 304 179 232 179 c 0
 160 179 128 211 128 307 c 0
 128 403 160 435 256 435 c 0
 352 435 384 403 384 307 c 2
 384 243 l 1
 432 243 448 259 448 307 c 0
 448 483 432 499 256 499 c 0
 80 499 64 483 64 307 c 0
 64 131 80 115 256 115 c 2
 416 115 l 1
 416 83 l 1
 416 83 352 51 256 51 c 0
 32 51 0 83 0 307 c 2
256 371 m 0
 208 371 192 355 192 307 c 0
 192 259 208 243 256 243 c 0
 304 243 320 259 320 307 c 0
 320 355 304 371 256 371 c 0
EndSplineSet
Validated: 1
EndChar

StartChar: A
Encoding: 65 65 32
Width: 512
Flags: HW
HStem: 51 21G<0 71.5 376.5 448> 179 64<136 312> 543 20G<184.5 263.5>
LayerCount: 2
Fore
SplineSet
192 563 m 1
 256 563 l 1
 448 51 l 1
 384 51 l 1
 336 179 l 1
 112 179 l 1
 64 51 l 1
 0 51 l 1
 192 563 l 1
224 478 m 1
 136 243 l 1
 312 243 l 1
 224 478 l 1
EndSplineSet
Validated: 1
EndChar

StartChar: B
Encoding: 66 66 33
Width: 448
Flags: HW
HStem: 51 64<64 298.761> 307 64<64 302.702> 499 64<64 307.43>
VStem: 0 64<115 307 371 499> 320 64<134.649 288.946 384.98 484.267>
LayerCount: 2
Fore
SplineSet
0 563 m 1
 192 563 l 2
 352 563 384 531 384 443 c 0
 384 388 372 355 324 338 c 1
 372 318 384 277 384 203 c 0
 384 83 352 51 192 51 c 2
 0 51 l 1
 0 563 l 1
64 499 m 1
 64 371 l 1
 192 371 l 2
 304 371 320 387 320 435 c 0
 320 483 304 499 192 499 c 2
 64 499 l 1
64 307 m 1
 64 115 l 1
 192 115 l 2
 304 115 320 131 320 211 c 0
 320 291 304 307 192 307 c 2
 64 307 l 1
EndSplineSet
Validated: 1
EndChar

StartChar: C
Encoding: 67 67 34
Width: 448
Flags: HW
HStem: 51 64<93.9629 290.227> 435 21G<305.229 377.5> 499 64<93.9631 290.227>
VStem: 0 64<148.367 465.633> 311.75 65.75<138.091 179 435 475.909>
LayerCount: 2
Fore
SplineSet
192 563 m 0
 314 563 362 544 378 435 c 1
 312 435 l 1
 299 492 267 499 192 499 c 0
 80 499 64 483 64 307 c 0
 64 131 80 115 192 115 c 0
 267 115 299 122 312 179 c 1
 378 179 l 1
 362 70 314 51 192 51 c 0
 32 51 0 83 0 307 c 0
 0 531 32 563 192 563 c 0
EndSplineSet
Validated: 1
EndChar

StartChar: D
Encoding: 68 68 35
Width: 448
Flags: HW
HStem: 51 64<64 289.5> 499 64<64 289.5>
VStem: 0 64<115 499> 320 64<146.684 467.316>
LayerCount: 2
Fore
SplineSet
0 563 m 1
 192 563 l 2
 352 563 384 531 384 307 c 0
 384 83 352 51 192 51 c 2
 0 51 l 1
 0 563 l 1
64 499 m 1
 64 115 l 1
 192 115 l 2
 304 115 320 131 320 307 c 0
 320 483 304 499 192 499 c 2
 64 499 l 1
EndSplineSet
Validated: 1
EndChar

StartChar: E
Encoding: 69 69 36
Width: 384
Flags: W
HStem: 51 64<64 319.999> 307 64<64 256> 499 64<64 319.999>
VStem: 0 64<115 307 371 499>
LayerCount: 2
Fore
SplineSet
0 563 m 1
 319.999023438 563 l 1
 319.999023438 499 l 1
 64 499 l 1
 64 371 l 1
 256 371 l 1
 256 307 l 1
 64 307 l 1
 64 115 l 1
 319.999023438 115 l 1
 319.999023438 51 l 1
 0 51 l 1
 0 563 l 1
EndSplineSet
Validated: 1
EndChar

StartChar: F
Encoding: 70 70 37
Width: 384
Flags: W
HStem: 51 21G<0 64> 307 64<64 256> 499 64<64 320>
VStem: 0 64<51 307 371 499>
LayerCount: 2
Fore
SplineSet
0 563 m 1
 320 563 l 1
 320 499 l 1
 64 499 l 1
 64 371 l 1
 256 371 l 1
 256 307 l 1
 64 307 l 1
 64 51 l 1
 0 51 l 1
 0 563 l 1
EndSplineSet
Validated: 1
EndChar

StartChar: G
Encoding: 71 71 38
Width: 448
Flags: HW
HStem: 51 64<94.4999 320> 243 64<192 320> 435 21G<305.229 377.5> 499 64<93.9633 290.226>
VStem: 0 64<148.368 465.632> 311.75 65.75<435 475.909> 320 64<115 243>
LayerCount: 2
Fore
SplineSet
192 563 m 0xfa
 314 563 362 544 378 435 c 1
 312 435 l 1xfc
 299 492 267 499 192 499 c 0
 80 499 64 483 64 307 c 0
 64 131 80 115 192 115 c 2
 320 115 l 1
 320 243 l 1
 192 243 l 1
 192 307 l 1
 384 307 l 1
 384 51 l 1
 192 51 l 2
 32 51 -0 83 0 307 c 0
 0 531 32 563 192 563 c 0xfa
EndSplineSet
Validated: 1
EndChar

StartChar: H
Encoding: 72 72 39
Width: 448
Flags: HW
HStem: 51 21G<0 64 320 384> 307 64<64 320> 543 20G<0 64 320 384>
VStem: 0 64<51 307 371 563> 320 64<51 307 371 563>
LayerCount: 2
Fore
SplineSet
0 563 m 1
 64 563 l 1
 64 371 l 1
 320 371 l 1
 320 563 l 1
 384 563 l 1
 384 51 l 1
 320 51 l 1
 320 307 l 1
 64 307 l 1
 64 51 l 1
 0 51 l 1
 0 563 l 1
EndSplineSet
Validated: 1
EndChar

StartChar: I
Encoding: 73 73 40
Width: 256
Flags: HW
HStem: 51 64<0 64 128 192> 499 64<0 64 128 192>
VStem: 0 192<51 115 499 563>
LayerCount: 2
Fore
SplineSet
0 563 m 1
 192 563 l 1
 192 499 l 1
 128 499 l 1
 128 115 l 1
 192 115 l 1
 192 51 l 1
 0 51 l 1
 0 115 l 1
 64 115 l 1
 64 499 l 1
 0 499 l 1
 0 563 l 1
EndSplineSet
Validated: 1
EndChar

StartChar: J
Encoding: 74 74 41
Width: 384
Flags: HW
HStem: 51 64<75.653 231.579> 499 64<128 256>
VStem: 0 64<128.154 179> 256 64<142.864 499>
LayerCount: 2
Fore
SplineSet
128 563 m 1
 320 563 l 1
 320 307 l 2
 320 83 288 51 160 51 c 0
 32 51 0 83 0 179 c 1
 64 179 l 1
 64 131 80 115 160 115 c 0
 240 115 256 131 256 307 c 2
 256 499 l 1
 128 499 l 1
 128 563 l 1
EndSplineSet
Validated: 1
EndChar

StartChar: K
Encoding: 75 75 42
Width: 448
Flags: HW
HStem: 51 21G<0 64 307.969 384> 307 64<64 166> 543 20G<0 64 305 384>
VStem: 0 64<51 307 371 563>
LayerCount: 2
Fore
SplineSet
0 51 m 1
 0 563 l 1
 64 563 l 1
 64 371 l 1
 176 371 l 1
 320 563 l 1
 384 563 l 1
 213 336 l 1
 384 51 l 1
 320 51 l 1
 166 307 l 1
 64 307 l 1
 64 51 l 1
 0 51 l 1
EndSplineSet
Validated: 1
EndChar

StartChar: L
Encoding: 76 76 43
Width: 384
Flags: HW
HStem: 51 64<64 320> 543 20G<0 64>
VStem: 0 64<115 563>
LayerCount: 2
Fore
SplineSet
0 563 m 1
 64 563 l 1
 64 115 l 1
 320 115 l 1
 320 51 l 1
 0 51 l 1
 0 563 l 1
EndSplineSet
Validated: 1
EndChar

StartChar: M
Encoding: 77 77 44
Width: 640
Flags: HW
HStem: 51 21G<0 64 246 330 512 576> 543 20G<0 74 502 576>
VStem: 0 64<51 435> 512 64<51 435>
LayerCount: 2
Fore
SplineSet
0 563 m 1
 64 563 l 1
 288 115 l 1
 512 563 l 1
 576 563 l 1
 576 51 l 1
 512 51 l 1
 512 435 l 1
 320 51 l 1
 256 51 l 1
 64 435 l 1
 64 51 l 1
 0 51 l 1
 0 563 l 1
EndSplineSet
Validated: 1
EndChar

StartChar: N
Encoding: 78 78 45
Width: 448
Flags: HW
HStem: 51 21G<0 64 320 384> 543 20G<0 81.7778 320 384>
VStem: 0 64<51 467> 320 64<51 179 275 563>
LayerCount: 2
Fore
SplineSet
0 563 m 1
 64 563 l 1
 320 275 l 1
 320 563 l 1
 384 563 l 1
 384 51 l 1
 320 51 l 1
 320 179 l 1
 64 467 l 1
 64 51 l 1
 0 51 l 1
 0 563 l 1
EndSplineSet
Validated: 1
EndChar

StartChar: O
Encoding: 79 79 46
Width: 448
Flags: HW
HStem: 51 64<93.9629 290.037> 499 64<93.9631 290.037>
VStem: 0 64<148.367 465.633> 320 64<146.684 467.316>
LayerCount: 2
Fore
SplineSet
192 563 m 0
 352 563 384 531 384 307 c 0
 384 83 352 51 192 51 c 0
 32 51 -0 83 0 307 c 0
 0 531 32 563 192 563 c 0
192 499 m 0
 80 499 64 483 64 307 c 0
 64 131 80 115 192 115 c 0
 304 115 320 131 320 307 c 0
 320 483 304 499 192 499 c 0
EndSplineSet
Validated: 1
EndChar

StartChar: P
Encoding: 80 80 47
Width: 448
Flags: HW
HStem: 51 21G<0 64> 243 64<64 298.761> 499 64<64 298.76>
VStem: 0 64<51 243 307 499> 319.999 64.001<326.188 479.351>
LayerCount: 2
Fore
SplineSet
192 243 m 2
 64 243 l 1
 64 51 l 1
 0 51 l 1
 0 563 l 1
 192 563 l 2
 352 563 384 531 384 411 c 0
 384 275 352 243 192 243 c 2
64 307 m 1
 192 307 l 2
 304 307 320 323 320 403 c 0
 320 483 304 499 192 499 c 2
 64 499 l 1
 64 307 l 1
EndSplineSet
Validated: 1
EndChar

StartChar: Q
Encoding: 81 81 48
Width: 448
Flags: HW
HStem: 51 64<95.8096 253.86> 498.998 64.002<95.8038 172.503 172.505 288.189>
VStem: 0.0361328 63.9863<147.303 467.349> 319.974 63.9902<153.971 466.646>
LayerCount: 2
Fore
SplineSet
192 563 m 0
 352 563 384 531 384 307 c 0
 384 181 374 115 336 82 c 1
 384 -13 l 1
 320 -13 l 1
 284 58 l 1
 260 53 229 51 192 51 c 0
 32 51 0 83 0 307 c 0
 0 531 32 563 192 563 c 0
192 499 m 0
 80 499 64 483 64 307 c 0
 64 131 80 115 192 115 c 0
 217 115 238 116 254 119 c 1
 192 243 l 1
 256 243 l 1
 302 151 l 1
 317 178 320 226 320 307 c 0
 320 483 304 499 192 499 c 0
EndSplineSet
Validated: 1
EndChar

StartChar: R
Encoding: 82 82 49
Width: 448
Flags: HW
HStem: 51 21G<0 64 307.5 384> 243 64<64 200> 499 64<64 298.76>
VStem: 0 64<51 243 307 499> 320 64<324.876 479.351>
LayerCount: 2
Fore
SplineSet
0 563 m 1
 192 563 l 2
 352 563 384 531 384 411 c 0
 384 298 362 257 262 246 c 1
 384 51 l 1
 320 51 l 1
 200 243 l 1
 64 243 l 1
 64 51 l 1
 0 51 l 1
 0 563 l 1
64 499 m 1
 64 307 l 1
 192 307 l 2
 304 307 320 323 320 403 c 0
 320 483 304 499 192 499 c 2
 64 499 l 1
EndSplineSet
Validated: 1
EndChar

StartChar: S
Encoding: 83 83 50
Width: 448
Flags: HW
HStem: 51 64<85.2393 303.168> 307 64<76.5707 303.168> 435 21G<320 384> 499 64<76.3315 307.668>
VStem: 0 64<135.997 211 386.27 483.73> 320 64<131 291 435 482.461>
LayerCount: 2
Fore
SplineSet
192 563 m 0
 352 563 384 531 384 435 c 1
 320 435 l 1
 320 483 304 499 192 499 c 0
 80 499 64 483 64 435 c 0
 64 387 80 371 192 371 c 0
 352 371 384 339 384 211 c 0
 384 83 352 51 192 51 c 0
 32 51 0 83 0 211 c 1
 64 211 l 1
 64 131 80 115 192 115 c 0
 304 115 320 123 320 211 c 0
 320 299 304 307 192 307 c 0
 32 307 0 339 0 435 c 0
 0 531 32 563 192 563 c 0
EndSplineSet
Validated: 1
EndChar

StartChar: T
Encoding: 84 84 51
Width: 512
Flags: HW
HStem: 51 21G<192 256> 499 64<0 192 256 448>
VStem: 192 64<51 499>
LayerCount: 2
Fore
SplineSet
0 563 m 1
 448 563 l 1
 448 499 l 1
 256 499 l 1
 256 51 l 1
 192 51 l 1
 192 499 l 1
 0 499 l 1
 0 563 l 1
EndSplineSet
Validated: 1
EndChar

StartChar: U
Encoding: 85 85 52
Width: 448
Flags: HW
HStem: 51 64<93.9629 290.037> 543 20G<0 64 320 384>
VStem: 0 64<148.368 563> 320 64<148.368 563>
LayerCount: 2
Fore
SplineSet
0 563 m 1
 64 563 l 1
 64 307 l 2
 64 131 80 115 192 115 c 0
 304 115 320 131 320 307 c 2
 320 563 l 1
 384 563 l 1
 384 307 l 2
 384 83 352 51 192 51 c 0
 32 51 -0 83 0 307 c 2
 0 563 l 1
EndSplineSet
Validated: 1
EndChar

StartChar: V
Encoding: 86 86 53
Width: 512
Flags: HW
HStem: 51 21G<184.5 263.5> 543 20G<0 71.5117 376.488 448>
LayerCount: 2
Fore
SplineSet
0 563 m 1
 64 563 l 1
 224 137 l 1
 384 563 l 1
 448 563 l 1
 256 51 l 1
 192 51 l 1
 0 563 l 1
EndSplineSet
Validated: 1
EndChar

StartChar: W
Encoding: 87 87 54
Width: 768
Flags: HW
HStem: 51 21G<123 199.494 504.506 581> 543 20G<0 68.9878 312.469 391.531 635.012 704>
LayerCount: 2
Fore
SplineSet
0 563 m 1
 64 563 l 1
 166 154 l 1
 320 563 l 1
 384 563 l 1
 538 154 l 1
 640 563 l 1
 704 563 l 1
 576 51 l 1
 512 51 l 1
 352 478 l 1
 192 51 l 1
 128 51 l 1
 0 563 l 1
EndSplineSet
Validated: 1
EndChar

StartChar: X
Encoding: 88 88 55
Width: 448
Flags: HW
HStem: 51 21G<0 76.4878 307.512 384> 543 20G<0 76.4878 307.512 384>
LayerCount: 2
Fore
SplineSet
0 563 m 1
 64 563 l 1
 192 358 l 1
 320 563 l 1
 384 563 l 1
 224 307 l 1
 384 51 l 1
 320 51 l 1
 192 256 l 1
 64 51 l 1
 0 51 l 1
 160 307 l 1
 0 563 l 1
EndSplineSet
Validated: 1
EndChar

StartChar: Y
Encoding: 89 89 56
Width: 512
Flags: W
HStem: 51 21G<192 256> 543 20G<0 76.0301 371.97 448>
VStem: 192 64<51 243>
LayerCount: 2
Fore
SplineSet
0 563 m 1
 64 563 l 1
 224 297 l 1
 384 563 l 1
 448 563 l 1
 256 243 l 1
 256 51 l 1
 192 51 l 1
 192 243 l 1
 0 563 l 1
EndSplineSet
Validated: 1
EndChar

StartChar: Z
Encoding: 90 90 57
Width: 448
Flags: HW
HStem: 51 64<77 384> 499 64<0 307>
LayerCount: 2
Fore
SplineSet
0 563 m 1
 384 563 l 1
 384 499 l 1
 77 115 l 1
 384 115 l 1
 384 51 l 1
 0 51 l 1
 0 115 l 1
 307 499 l 1
 0 499 l 1
 0 563 l 1
EndSplineSet
Validated: 1
EndChar

StartChar: bracketleft
Encoding: 91 91 58
Width: 256
Flags: HW
HStem: -13 64<64 192> 563 64<64 192>
VStem: 0 192<-13 51 563 627> 0 64<51 563>
LayerCount: 2
Fore
SplineSet
0 627 m 1xe0
 192 627 l 1
 192 563 l 1xe0
 64 563 l 1
 64 51 l 1xd0
 192 51 l 1
 192 -13 l 1
 0 -13 l 1
 0 627 l 1xe0
EndSplineSet
Validated: 1
EndChar

StartChar: backslash
Encoding: 92 92 59
Width: 384
Flags: HW
HStem: 51 21G<246 320> 543 20G<0 74>
VStem: 0 320
LayerCount: 2
Fore
SplineSet
0 563 m 1
 64 563 l 1
 320 51 l 1
 256 51 l 1
 0 563 l 1
EndSplineSet
Validated: 1
EndChar

StartChar: bracketright
Encoding: 93 93 60
Width: 256
Flags: HW
HStem: -13 64<0 128> 563 64<0 128>
VStem: 0 192<-13 51 563 627> 128 64<51 563>
LayerCount: 2
Fore
SplineSet
192 627 m 1xe0
 192 -13 l 1
 0 -13 l 1
 0 51 l 1xe0
 128 51 l 1
 128 563 l 1xd0
 0 563 l 1
 0 627 l 1
 192 627 l 1xe0
EndSplineSet
Validated: 1
EndChar

StartChar: asciicircum
Encoding: 94 94 61
Width: 384
Flags: HW
HStem: 371 256
VStem: -0 320
LayerCount: 2
Fore
SplineSet
128 627 m 1
 192 627 l 1
 320 371 l 1
 256 371 l 1
 160 563 l 1
 64 371 l 1
 -0 371 l 1
 128 627 l 1
EndSplineSet
Validated: 1
EndChar

StartChar: underscore
Encoding: 95 95 62
Width: 448
Flags: HW
HStem: -13 64<0 384>
LayerCount: 2
Fore
SplineSet
0 -13 m 1
 0 51 l 1
 384 51 l 1
 384 -13 l 1
 0 -13 l 1
EndSplineSet
Validated: 1
EndChar

StartChar: grave
Encoding: 96 96 63
Width: 196
Flags: W
HStem: 499 128
VStem: -0 128
LayerCount: 2
Fore
SplineSet
64 627 m 1
 128 499 l 1
 96 499 l 1
 -0 627 l 1
 64 627 l 1
EndSplineSet
Validated: 1
EndChar

StartChar: a
Encoding: 97 97 64
Width: 384
Flags: HW
HStem: 51 63.9961<74.2253 229.159> 243 64<74.2251 229.069> 371 64<47.1875 221.118>
VStem: 0 63.999<128.154 229.846> 256 64<51 102.75 126.407 231.724>
LayerCount: 2
Fore
SplineSet
32 403 m 1
 32 403 64 435 160 435 c 0
 288 435 320 403 320 179 c 2
 320 51 l 1
 256 51 l 1
 256 103 l 1
 235 65 194 51 136 51 c 0
 32 51 0 83 0 179 c 0
 -0 275 32 307 136 307 c 0
 191 307 230 295 252 262 c 1
 241 351 211 371 160 371 c 2
 32 371 l 1
 32 403 l 1
160 243 m 0
 80 243 64 227 64 179 c 0
 64 131 80 115 160 115 c 0
 240 115 256 131 256 179 c 0
 256 227 240 243 160 243 c 0
EndSplineSet
Validated: 1
EndChar

StartChar: b
Encoding: 98 98 65
Width: 384
Flags: HW
HStem: 51 64<98.2378 235.17> 371 64<97.8108 236.585> 543 20G<0 64>
VStem: 0 64<51 121.5 132.299 353.702 364.5 563> 256 64<134.269 351.731>
LayerCount: 2
Fore
SplineSet
0 563 m 1
 64 563 l 1
 64 364 l 1
 85 421 126 435 184 435 c 0
 288 435 320 403 320 243 c 0
 320 83 288 51 184 51 c 0
 126 51 85 65 64 122 c 1
 64 51 l 1
 0 51 l 1
 0 563 l 1
160 371 m 0
 80 371 64 355 64 243 c 0
 64 131 80 115 160 115 c 0
 240 115 256 131 256 243 c 0
 256 355 240 371 160 371 c 0
EndSplineSet
Validated: 1
EndChar

StartChar: c
Encoding: 99 99 66
Width: 384
Flags: HW
HStem: 51 64<83.498 237.159> 371 64<83.4984 237.159>
VStem: 0 64<136.239 349.76> 252.75 64.75<131.863 179 307 354.137>
LayerCount: 2
Fore
SplineSet
160 435 m 0
 269 435 308 412 318 307 c 1
 253 307 l 1
 245 362 221 371 160 371 c 0
 80 371 64 355 64 243 c 0
 64 131 80 115 160 115 c 0
 221 115 245 124 253 179 c 1
 318 179 l 1
 308 74 269 51 160 51 c 0
 32 51 0 83 0 243 c 0
 0 403 32 435 160 435 c 0
EndSplineSet
Validated: 1
EndChar

StartChar: d
Encoding: 100 100 67
Width: 384
Flags: HW
HStem: 51 64<84.8301 221.762> 371 64<83.4152 222.189> 543 20G<256 320>
VStem: 0 64<134.269 351.731> 256 64<51 121.5 132.299 353.701 364.5 563>
LayerCount: 2
Fore
SplineSet
320 563 m 1
 320 51 l 1
 256 51 l 1
 256 122 l 1
 235 65 194 51 136 51 c 0
 32 51 0 83 0 243 c 0
 0 403 32 435 136 435 c 0
 194 435 235 421 256 364 c 1
 256 563 l 1
 320 563 l 1
160 371 m 0
 80 371 64 355 64 243 c 0
 64 131 80 115 160 115 c 0
 240 115 256 131 256 243 c 0
 256 355 240 371 160 371 c 0
EndSplineSet
Validated: 1
EndChar

StartChar: e
Encoding: 101 101 68
Width: 384
Flags: HW
HStem: 51 64<83.498 237.159> 243 64<67.25 252.75> 371 64<83.494 238.919>
VStem: 0 64<136.239 243 307 349.76> 252.75 64.75<131.863 179>
LayerCount: 2
Fore
SplineSet
160 435 m 0
 288 435 320 403 320 243 c 1
 64 243 l 1
 64 131 80 115 160 115 c 0
 221 115 245 124 253 179 c 1
 318 179 l 1
 308 74 269 51 160 51 c 0
 32 51 0 83 0 243 c 0
 0 403 32 435 160 435 c 0
160 371 m 0
 96 371 75 359 67 307 c 5
 253 307 l 5
 245 362 224 371 160 371 c 0
EndSplineSet
Validated: 1
EndChar

StartChar: f
Encoding: 102 102 69
Width: 320
Flags: HW
HStem: 51 21G<64 128> 307 64<0 64 128 256> 499 64<148.996 256>
VStem: 64 64<51 307 371 477.761>
LayerCount: 2
Fore
SplineSet
64 371 m 1
 64 531 96 563 224 563 c 2
 256 563 l 1
 256 499 l 1
 224 499 l 2
 144 499 128 483 128 371 c 1
 256 371 l 1
 256 307 l 1
 128 307 l 1
 128 51 l 1
 64 51 l 1
 64 307 l 1
 0 307 l 1
 0 371 l 1
 64 371 l 1
EndSplineSet
Validated: 1
EndChar

StartChar: g
Encoding: 103 103 70
Width: 384
Flags: HW
HStem: -141 64<83.8712 235.003> 51 64<84.8301 221.762> 371 64<83.4152 222.189>
VStem: 0 64<-56.4037 -13 136.24 349.76> 256 64<-55.7607 121.5 132.299 353.701 364.5 435>
LayerCount: 2
Fore
SplineSet
136 435 m 0
 194 435 235 421 256 364 c 1
 256 435 l 1
 320 435 l 1
 320 51 l 2
 320 -109 288 -141 160 -141 c 0
 51 -141 12 -118 2 -13 c 1
 67 -13 l 1
 75 -68 99 -77 160 -77 c 0
 240 -77 256 -61 256 51 c 2
 256 122 l 1
 235 65 194 51 136 51 c 0
 32 51 0 83 0 243 c 0
 -0 403 32 435 136 435 c 0
160 371 m 0
 80 371 64 355 64 243 c 0
 64 131 80 115 160 115 c 0
 240 115 256 131 256 243 c 0
 256 355 240 371 160 371 c 0
EndSplineSet
Validated: 1
EndChar

StartChar: h
Encoding: 104 104 71
Width: 384
Flags: HW
HStem: 51 21G<0 64 256 320> 371 64<97.8111 236.585> 543 20G<0 64>
VStem: 0 64<51 353.702 364.499 563> 256 64<51 349.76>
LayerCount: 2
Fore
SplineSet
0 563 m 1
 64 563 l 1
 64 364 l 1
 85 421 126 435 184 435 c 0
 288 435 320 403 320 243 c 2
 320 51 l 1
 256 51 l 1
 256 243 l 2
 256 355 240 371 160 371 c 0
 80 371 64 355 64 243 c 2
 64 51 l 1
 0 51 l 1
 0 563 l 1
EndSplineSet
Validated: 1
EndChar

StartChar: i
Encoding: 105 105 72
Width: 128
Flags: W
HStem: 51 21G<0 64> 415 20G<0 64> 499 64<0 64>
VStem: 0 64<51 435 499 563>
LayerCount: 2
Fore
SplineSet
0 563 m 1
 64 563 l 1
 64 499 l 1
 0 499 l 1
 0 563 l 1
0 435 m 1
 64 435 l 1
 64 51 l 1
 0 51 l 1
 0 435 l 1
EndSplineSet
Validated: 1
EndChar

StartChar: j
Encoding: 106 106 73
Width: 128
Flags: HW
HStem: -141.369 64.7148<-127.931 -25.112> 415.069 20G<0 63.9658> 499.034 63.9658<0 63.9658>
VStem: 0 63.9658<-53.4063 435.067 499.034 563>
LayerCount: 2
Fore
SplineSet
0 563 m 1
 64 563 l 1
 64 499 l 1
 0 499 l 1
 0 563 l 1
0 435 m 1
 64 435 l 1
 64 115 l 2
 64 -109 32 -138 -96 -141 c 2
 -128 -141 l 1
 -128 -77 l 1
 -96 -77 l 2
 -16 -77 0 -61 0 115 c 2
 0 435 l 1
EndSplineSet
Validated: 1
EndChar

StartChar: k
Encoding: 107 107 74
Width: 384
Flags: HW
HStem: 51 21G<0 64.001 242.668 320.001> 243 64<64.001 128.001> 415 20G<236.001 320.001> 543 20G<0 64.001>
VStem: 0 64.001<51 243 307 563>
LayerCount: 2
Fore
SplineSet
0 563 m 1
 64 563 l 1
 64 307 l 1
 128 307 l 1
 256 435 l 1
 320 435 l 1
 166 281 l 1
 320 51 l 1
 256 51 l 1
 128 243 l 1
 64 243 l 1
 64 51 l 1
 0 51 l 1
 0 563 l 1
EndSplineSet
Validated: 1
EndChar

StartChar: l
Encoding: 108 108 75
Width: 192
Flags: HW
HStem: 51 64<148.009 192> 498.25 64.75<0 43.9906>
VStem: 64 64<132.464 481.536>
LayerCount: 2
Fore
SplineSet
64 563 m 1
 64 307 l 2
 64 131 80 115 128 115 c 1
 128 51 l 1
 32 51 0 83 0 307 c 2
 0 563 l 1
 64 563 l 1
EndSplineSet
Validated: 1
EndChar

StartChar: m
Encoding: 109 109 76
Width: 640
Flags: HW
HStem: 51 21G<0 64 256 320 512 576> 371 64<94.2733 238.071 349.032 492.995>
VStem: 0 64<51 353.702 364.5 435> 256 64<51 353.701> 512 64<51 349.761>
CounterMasks: 1 38
LayerCount: 2
Fore
SplineSet
0 435 m 1
 64 435 l 1
 64 364 l 1
 85 421 112 435 192 435 c 0
 262 435 298 418 312 348 c 1
 327 418 367 435 448 435 c 0
 544 435 576 403 576 243 c 2
 576 51 l 1
 512 51 l 1
 512 243 l 2
 512 355 496 371 416 371 c 0
 336 371 320 355 320 243 c 2
 320 51 l 1
 256 51 l 1
 256 243 l 2
 256 355 240 371 160 371 c 0
 80 371 64 355 64 243 c 2
 64 51 l 1
 0 51 l 1
 0 435 l 1
EndSplineSet
Validated: 1
EndChar

StartChar: n
Encoding: 110 110 77
Width: 384
Flags: HW
HStem: 51 21G<0 63.9941 255.977 319.973> 370.972 63.9951<80.1224 239.848>
VStem: 0 63.9941<51 356.188 390.347 434.967> 255.977 63.9961<51 355.093>
LayerCount: 2
Fore
SplineSet
320 51 m 1
 256 51 l 1
 256 243 l 2
 256 246 256 250 256 254 c 0
 256 286 255 328 240 349 c 0
 225 370 195 371 171 371 c 0
 167 371 163 371 160 371 c 0
 157 371 153 371 149 371 c 0
 125 371 95 370 80 349 c 0
 65 328 64 286 64 254 c 0
 64 250 64 246 64 243 c 2
 64 51 l 1
 0 51 l 1
 0 243 l 1
 0 435 l 1
 64 435 l 1
 64 390 l 1
 66 395 68 399 71 403 c 0
 92 433 138 435 172 435 c 0
 176 435 180 435 184 435 c 0
 188 435 192 435 196 435 c 0
 230 435 276 433 297 403 c 0
 319 373 320 312 320 265 c 0
 320 257 320 250 320 243 c 2
 320 51 l 1
EndSplineSet
Validated: 1
EndChar

StartChar: o
Encoding: 111 111 78
Width: 384
Flags: HW
HStem: 51 64<83.498 236.501> 371 64<83.4984 236.502>
VStem: 0 64<136.239 349.761> 256 64<134.269 351.731>
LayerCount: 2
Fore
SplineSet
0 243 m 0
 0 403 32 435 160 435 c 0
 288 435 320 403 320 243 c 0
 320 83 288 51 160 51 c 0
 32 51 0 83 0 243 c 0
160 371 m 0
 80 371 64 355 64 243 c 0
 64 131 80 115 160 115 c 0
 240 115 256 131 256 243 c 0
 256 355 240 371 160 371 c 0
EndSplineSet
Validated: 1
EndChar

StartChar: p
Encoding: 112 112 79
Width: 384
Flags: HW
HStem: -141 21G<0 64> 51 64<97.8111 236.585> 371 64<98.2378 235.17>
VStem: 0 64<-141 121.5 132.298 353.701 364.5 435> 256 64<134.269 351.731>
LayerCount: 2
Fore
SplineSet
0 -141 m 1
 0 435 l 1
 64 435 l 1
 64 364 l 1
 85 421 126 435 184 435 c 0
 288 435 320 403 320 243 c 0
 320 83 288 51 184 51 c 0
 126 51 85 65 64 122 c 1
 64 -141 l 1
 0 -141 l 1
160 115 m 0
 240 115 256 131 256 243 c 0
 256 355 240 371 160 371 c 0
 80 371 64 355 64 243 c 0
 64 131 80 115 160 115 c 0
EndSplineSet
Validated: 1
EndChar

StartChar: q
Encoding: 113 113 80
Width: 384
Flags: HW
HStem: -141 65.5352<342.079 385.674> 49.3262 64.2793<83.7789 223.158> 370.721 64.2793<85.1999 222.729>
VStem: 0 64.2793<132.958 351.292> 257.116 64.2783<-57.1395 120.134 130.979 353.347 364.192 435>
LayerCount: 2
Fore
SplineSet
136 435 m 0
 194 435 235 421 256 364 c 1
 256 435 l 1
 320 435 l 1
 320 51 l 2
 320 -61 336 -76 384 -76 c 1
 384 -141 l 1
 288 -141 256 -109 256 51 c 2
 256 122 l 1
 235 65 194 51 136 51 c 0
 32 51 0 83 0 243 c 0
 0 403 32 435 136 435 c 0
153 371 m 0
 79 370 64 352 64 243 c 0
 64 131 80 115 160 115 c 0
 240 115 256 131 256 243 c 0
 256 355 240 371 160 371 c 0
 158 371 155 371 153 371 c 0
EndSplineSet
Validated: 1
EndChar

StartChar: r
Encoding: 114 114 81
Width: 320
Flags: HW
HStem: 51 21G<0 63.999> 370.993 64<85.7215 176.997>
VStem: 0 63.999<51 359.794 378.744 434.993> 189.122 64.623<306.994 361.283>
LayerCount: 2
Fore
SplineSet
0 435 m 1
 64 435 l 1
 64 379 l 1
 80 422 110 434 156 435 c 0
 157 435 159 435 160 435 c 0
 214 435 246 412 254 307 c 1
 189 307 l 1
 183 362 165 371 128 371 c 0
 81 371 65 356 64 253 c 2
 64 243 l 1
 64 51 l 1
 0 51 l 1
 0 435 l 1
EndSplineSet
Validated: 1
EndChar

StartChar: s
Encoding: 115 115 82
Width: 384
Flags: HW
HStem: 51 64<25.3125 242.879> 243 64<66.1723 242.879> 371 64<66.1723 272.812>
VStem: 0 64<311.344 366.656> 256 64<127.249 230.751>
LayerCount: 2
Fore
SplineSet
160 435 m 0
 256 435 288 403 288 403 c 1
 288 371 l 1
 160 371 l 2
 80 371 64 371 64 339 c 4
 64 307 80 307 160 307 c 4
 288 307 320 275 320 179 c 0
 320 83 288 51 160 51 c 0
 64 51 0 83 0 83 c 1
 0 115 l 1
 160 115 l 2
 240 115 256 131 256 179 c 0
 256 227 240 243 160 243 c 0
 32 243 0 275 0 339 c 0
 0 403 32 435 160 435 c 0
EndSplineSet
Validated: 1
EndChar

StartChar: t
Encoding: 116 116 83
Width: 256
Flags: HW
HStem: 51 64.6553<147.793 191.719> 371.281 63.9062<0 63.9062 127.812 191.719> 543 20G<63.9062 127.812>
VStem: 63.9062 63.9062<133.093 371.281 435.188 563>
LayerCount: 2
Fore
SplineSet
64 563 m 1
 128 563 l 1
 128 435 l 1
 192 435 l 1
 192 371 l 1
 128 371 l 1
 128 308 l 2
 128 132 144 116 192 116 c 1
 192 51 l 1
 96 52 64 84 64 308 c 2
 64 371 l 1
 0 371 l 1
 0 435 l 1
 64 435 l 1
 64 563 l 1
EndSplineSet
Validated: 1
EndChar

StartChar: u
Encoding: 117 117 84
Width: 384
Flags: HW
HStem: 51 64<83.415 222.189> 415 20G<0 64 256 320>
VStem: 0 64<136.24 435> 256 64<51 121.501 132.298 435>
LayerCount: 2
Fore
SplineSet
320 51 m 1
 256 51 l 1
 256 122 l 1
 235 65 194 51 136 51 c 0
 32 51 0 83 0 243 c 2
 0 435 l 1
 64 435 l 1
 64 243 l 2
 64 131 80 115 160 115 c 0
 240 115 256 131 256 243 c 2
 256 435 l 1
 320 435 l 1
 320 51 l 1
EndSplineSet
Validated: 1
EndChar

StartChar: v
Encoding: 118 118 85
Width: 384
Flags: HW
HStem: 51 21G<121.333 198.667> 415 20G<0 70.6667 249.333 320>
VStem: 0 320
LayerCount: 2
Fore
SplineSet
0 435 m 1
 64 435 l 1
 160 147 l 1
 256 435 l 1
 320 435 l 1
 192 51 l 1
 128 51 l 1
 0 435 l 1
EndSplineSet
Validated: 1
EndChar

StartChar: w
Encoding: 119 119 86
Width: 512
Flags: HW
HStem: 51 21G<60.6667 134.667 313.333 387.333> 415 20G<0 67.3594 185.359 262.641 380.641 448>
LayerCount: 2
Fore
SplineSet
0 435 m 1
 64 435 l 1
 107 179 l 1
 192 435 l 1
 256 435 l 1
 341 179 l 1
 384 435 l 1
 448 435 l 1
 384 51 l 1
 320 51 l 1
 224 339 l 1
 128 51 l 1
 64 51 l 1
 0 435 l 1
EndSplineSet
Validated: 1
EndChar

StartChar: x
Encoding: 120 120 87
Width: 384
Flags: HW
HStem: 51 21G<0 77.3333 242.667 320> 415 20G<0 77.3333 242.667 320>
VStem: 0 320
LayerCount: 2
Fore
SplineSet
0 435 m 1
 64 435 l 1
 160 291 l 1
 256 435 l 1
 320 435 l 1
 192 243 l 1
 320 51 l 1
 256 51 l 1
 160 195 l 1
 64 51 l 1
 0 51 l 1
 128 243 l 1
 0 435 l 1
EndSplineSet
Validated: 1
EndChar

StartChar: y
Encoding: 121 121 88
Width: 384
Flags: HW
HStem: -141 64<25.3125 235.003> 51 64<84.8299 221.762> 415 20G<0 64 256 319.999>
VStem: 0 64<136.24 435> 256 63.999<-55.7607 121.5 132.299 435>
LayerCount: 2
Fore
SplineSet
0 435 m 1
 64 435 l 1
 64 243 l 2
 64 131 80 115 160 115 c 0
 240 115 256 131 256 243 c 2
 256 435 l 1
 320 435 l 1
 320 51 l 2
 320 -109 288 -141 160 -141 c 0
 64 -141 0 -109 0 -109 c 1
 0 -77 l 1
 160 -77 l 2
 240 -77 256 -61 256 51 c 2
 256 122 l 1
 235 65 194 51 136 51 c 0
 32 51 0 83 0 243 c 2
 0 435 l 1
EndSplineSet
Validated: 1
EndChar

StartChar: z
Encoding: 122 122 89
Width: 384
Flags: HW
HStem: 51 64<96 320> 371 64<0 224>
VStem: 0 320<51 115 371 435>
LayerCount: 2
Fore
SplineSet
0 435 m 1
 280 435 l 1
 320 435 l 1
 320 371 l 1
 96 115 l 1
 320 115 l 1
 320 51 l 1
 40 51 l 1
 0 51 l 1
 0 115 l 1
 224 371 l 1
 0 371 l 1
 0 435 l 1
EndSplineSet
Validated: 1
EndChar

StartChar: braceleft
Encoding: 123 123 90
Width: 256
Flags: HW
HStem: -12.9512 63.999<152.312 191.997> 275.046 63.999<0 38.1072> 563.043 63.999<152.312 191.997>
VStem: 0 191.997
CounterMasks: 1 e0
LayerCount: 2
Fore
SplineSet
0 339 m 1
 112 339 -0 627 192 627 c 1
 192 563 l 1
 96 563 160 371 80 307 c 1
 160 243 91 51 192 51 c 1
 192 -13 l 1
 -0 -13 112 275 0 275 c 1
 0 339 l 1
EndSplineSet
Validated: 1
EndChar

StartChar: braceright
Encoding: 125 125 91
Width: 256
Flags: HW
HStem: -12.9512 63.999<0 39.4149> 275.046 63.999<148.551 191.997> 563.043 63.999<0 39.4149>
VStem: 0 191.997
CounterMasks: 1 e0
LayerCount: 2
Fore
SplineSet
192 339 m 1
 192 275 l 1
 64 275 192 -13 0 -13 c 1
 0 51 l 1
 96 51 32 243 112 307 c 1
 32 371 96 563 0 563 c 1
 0 627 l 5
 192 627 64 339 192 339 c 1
EndSplineSet
Validated: 1
EndChar

StartChar: asciitilde
Encoding: 126 126 92
Width: 448
Flags: HW
HStem: 243.002 128<40.6189 64 320.001 343.382>
LayerCount: 2
Fore
SplineSet
64 243 m 1
 0 243 l 1
 0 243 0 371 64 371 c 0
 149 371 235 314 282 314 c 0
 306 314 320 328 320 371 c 1
 384 371 l 1
 384 371 384 243 320 243 c 0
 235 243 149 300 102 300 c 0
 78 300 64 286 64 243 c 1
EndSplineSet
Validated: 1
EndChar

StartChar: bar
Encoding: 124 124 93
Width: 128
Flags: HW
HStem: 543 20G<0 64>
VStem: 0 64<-13 563>
LayerCount: 2
Fore
SplineSet
64 563 m 1
 64 -13 l 1
 0 -13 l 1
 0 563 l 1
 64 563 l 1
EndSplineSet
Validated: 1
EndChar

StartChar: exclamdown
Encoding: 161 161 94
Width: 128
Flags: HW
HStem: 435 64<0 64>
VStem: 0 64<-13 265.016 435 499>
LayerCount: 2
Fore
SplineSet
0 -13 m 1
 0 179 l 1
 16 371 l 1
 48 371 l 1
 64 179 l 1
 64 -13 l 1
 0 -13 l 1
0 435 m 1
 0 499 l 1
 64 499 l 1
 64 435 l 1
 0 435 l 1
EndSplineSet
Validated: 1
EndChar

StartChar: cent
Encoding: 162 162 95
Width: 384
Flags: HW
HStem: 115 128<129.913 191.086> 179.75 63.25<78.5246 128 192 240.504> 435 128<130.502 191.086> 435 63.25<78.5243 128 192 240.505>
VStem: 0 64<257.886 420.057> 128 64<115 181.432 496.568 563> 254.75 64.375<258.473 307 371 419.527>
LayerCount: 2
Fore
SplineSet
128 563 m 1x2e
 192 563 l 1x2e
 192 498 l 1x1e
 283 493 314 463 319 371 c 1
 255 371 l 1
 250 423 228 435 160 435 c 0
 158 435 155 435 153 435 c 0
 79 434 64 416 64 339 c 0
 64 259 80 243 160 243 c 0xae
 228 243 250 255 255 307 c 1
 319 307 l 1
 314 215 283 185 192 180 c 1x4e
 192 115 l 1
 128 115 l 1x8e
 128 180 l 1
 27 185 0 222 0 339 c 0
 0 456 27 493 128 498 c 1x5e
 128 563 l 1x2e
EndSplineSet
Validated: 1
EndChar

StartChar: sterling
Encoding: 163 163 96
Width: 448
Flags: HW
HStem: 51.0068 63.999<0 50.0153 113.874 319.996> 243.005 63.999<0.00292969 64.002 128 255.998> 435.002 21G<255.498 319.997> 499.001 63.999<143.269 246.876>
VStem: 64.002 63.9971<126.435 243.005 307.004 486.431> 255.498 64.499<435.002 489.148>
LayerCount: 2
Fore
SplineSet
64 307 m 1
 64 371 l 2
 64 531 96 563 192 563 c 0
 288 563 320 531 320 435 c 1
 255 435 l 1
 255 436 255 438 255 439 c 0
 255 484 239 499 192 499 c 0
 144 499 128 483 128 371 c 2
 128 307 l 1
 256 307 l 1
 256 243 l 1
 128 243 l 1
 128 185 124 144 114 115 c 1
 320 115 l 1
 320 51 l 1
 0 51 l 1
 0 115 l 1
 44 115 64 135 64 243 c 1
 0 243 l 1
 0 307 l 1
 64 307 l 1
EndSplineSet
Validated: 1
EndChar

StartChar: currency
Encoding: 164 164 97
Width: 448
Flags: HW
HStem: 179.001 63.9951<136.151 247.849> 371.001 64<136.151 247.849>
VStem: 64 64<251.153 362.85> 256.005 63.9951<251.153 362.85>
LayerCount: 2
Fore
SplineSet
64 499 m 1
 134 429 l 1
 150 433 169 435 192 435 c 0
 215 435 234 433 250 429 c 1
 320 499 l 1
 384 435 l 1
 314 365 l 1
 318 349 320 330 320 307 c 0
 320 284 318 265 314 249 c 1
 384 179 l 1
 320 115 l 1
 250 185 l 1
 234 181 215 179 192 179 c 0
 169 179 150 181 134 185 c 1
 64 115 l 1
 0 179 l 1
 70 249 l 1
 66 265 64 284 64 307 c 0
 64 330 66 349 70 365 c 1
 0 435 l 1
 64 499 l 1
188 371 m 2
 144 370 129 355 128 311 c 2
 128 307 l 2
 128 305 128 304 128 303 c 0
 129 259 144 244 188 243 c 2
 192 243 l 1
 196 243 l 2
 240 244 255 259 256 303 c 2
 256 307 l 2
 256 309 256 310 256 311 c 0
 255 355 240 370 196 371 c 2
 192 371 l 1
 188 371 l 2
EndSplineSet
Validated: 1
EndChar

StartChar: yen
Encoding: 165 165 98
Width: 512
Flags: HW
HStem: 51 21G<128 192> 115 64<0 128 192 320> 243 64<0 102.375 217.625 320> 543 20G<0 72 248 320>
VStem: 128 64<51 115 179 243>
LayerCount: 2
Fore
SplineSet
0 563 m 1
 64 563 l 1
 160 323 l 1
 256 563 l 1
 320 563 l 1
 218 307 l 1
 320 307 l 1
 320 243 l 1
 192 243 l 1
 192 179 l 1
 320 179 l 1
 320 115 l 1
 192 115 l 1
 192 51 l 1
 128 51 l 1
 128 115 l 1
 0 115 l 1
 0 179 l 1
 128 179 l 1
 128 243 l 1
 0 243 l 1
 0 307 l 1
 102 307 l 1
 0 563 l 1
EndSplineSet
Validated: 1
EndChar

StartChar: brokenbar
Encoding: 166 166 99
Width: 128
Flags: HW
HStem: 543 20G<0 64>
VStem: 0 64<-13 243 307 563>
LayerCount: 2
Fore
SplineSet
0 563 m 1
 64 563 l 1
 64 307 l 1
 0 307 l 1
 0 563 l 1
0 243 m 1
 64 243 l 1
 64 -13 l 1
 0 -13 l 1
 0 243 l 1
EndSplineSet
Validated: 1
EndChar

StartChar: section
Encoding: 167 167 100
Width: 448
Flags: HW
HStem: 51 64<57.3135 315.525> 179 64<137.853 247.721> 371 64<136.278 246.147> 499 64<68.4765 326.688>
VStem: 0 63.999<445.526 486.852> 64 64<252.5 354.028> 256 63.999<259.972 361.5> 320.001 64<126.074 168.678>
LayerCount: 2
Fore
SplineSet
192 563 m 0
 288 563 352 531 352 531 c 1
 352 499 l 1
 192 499 l 2
 80 499 64 483 64 467 c 0
 64 451 80 435 192 435 c 0
 288 435 320 403 320 339 c 0
 320 291 306 255 270 239 c 1
 360 229 384 195 384 147 c 0
 384 83 352 51 192 51 c 0
 96 51 32 83 32 83 c 1
 32 115 l 1
 192 115 l 2
 304 115 320 131 320 147 c 0
 320 163 304 179 192 179 c 0
 96 179 64 211 64 275 c 0
 64 323 78 359 113 374 c 1
 21 384 -0 419 0 467 c 0
 0 531 32 563 192 563 c 0
192 371 m 0
 144 371 128 355 128 307 c 0
 128 259 144 243 192 243 c 0
 240 243 256 259 256 307 c 0
 256 355 240 371 192 371 c 0
EndSplineSet
Validated: 1
EndChar

StartChar: copyright
Encoding: 169 169 101
Width: 576
Flags: HW
HStem: 51 64<168.32 343.68> 179 64<209.085 304.162> 371 64.1367<209.085 304.146> 499 64<168.32 343.68>
VStem: 0 64<219.32 394.68> 128 64<259.35 354.65> 448 64<219.32 394.68>
LayerCount: 2
Fore
SplineSet
256 563 m 0
 397 563 512 448 512 307 c 0
 512 166 397 51 256 51 c 0
 115 51 -0 166 0 307 c 0
 -0 448 115 563 256 563 c 0
256 499 m 0
 150 499 64 413 64 307 c 0
 64 201 150 115 256 115 c 0
 362 115 448 201 448 307 c 0
 448 413 362 499 256 499 c 0
256 435 m 0
 302 435 344 411 367 371 c 1
 311 339 l 1
 300 359 279 371 256 371 c 0
 221 371 192 342 192 307 c 0
 192 272 221 243 256 243 c 0
 279 243 300 255 311 275 c 1
 367 243 l 1
 344 203 302 179 256 179 c 0
 185 179 128 236 128 307 c 0
 128 378 185 435 256 435 c 0
EndSplineSet
Validated: 1
EndChar

StartChar: guillemotleft
Encoding: 171 171 102
Width: 320
Flags: HW
HStem: 179 256.001
VStem: 0 256.001
LayerCount: 2
Fore
SplineSet
64 435 m 1
 128 435 l 1
 64 307 l 1
 128 179 l 1
 64 179 l 1
 0 307 l 1
 64 435 l 1
192 435 m 1
 256 435 l 1
 192 307 l 1
 256 179 l 1
 192 179 l 1
 128 307 l 1
 192 435 l 1
EndSplineSet
Validated: 1
EndChar

StartChar: registered
Encoding: 174 174 103
Width: 576
Flags: HW
HStem: 51 64<168.371 343.629> 243 64<192 272> 371 64<192 316.54> 499 64<168.371 343.629>
VStem: 0 64<219.371 394.629> 128 64<179 243 307 371> 320 64<309.129 368.565> 448 64<219.371 394.629>
LayerCount: 2
Fore
SplineSet
256 563 m 0
 397 563 512 448 512 307 c 0
 512 166 397 51 256 51 c 0
 115 51 0 166 0 307 c 0
 0 448 115 563 256 563 c 0
256 499 m 0
 150 499 64 413 64 307 c 0
 64 201 150 115 256 115 c 0
 362 115 448 201 448 307 c 0
 448 413 362 499 256 499 c 0
128 435 m 1
 192 435 l 1
 288 435 l 2
 341 435 384 392 384 339 c 0
 384 301 361 267 329 252 c 1
 384 179 l 1
 320 179 l 1
 272 243 l 1
 192 243 l 1
 192 179 l 1
 128 179 l 1
 128 435 l 1
192 371 m 1
 192 307 l 1
 288 307 l 1
 306 307 320 321 320 339 c 0
 320 357 306 371 288 371 c 2
 192 371 l 1
EndSplineSet
Validated: 1
EndChar

StartChar: degree
Encoding: 176 176 104
Width: 256
Flags: HW
HStem: 371 64<66.4528 125.547> 499 64<66.4528 125.547>
VStem: 0 64<437.453 496.547> 128 64<437.453 496.547>
LayerCount: 2
Fore
SplineSet
96 563 m 0
 149 563 192 520 192 467 c 0
 192 414 149 371 96 371 c 0
 43 371 0 414 0 467 c 0
 0 520 43 563 96 563 c 0
96 499 m 0
 78 499 64 485 64 467 c 0
 64 449 78 435 96 435 c 0
 114 435 128 449 128 467 c 0
 128 485 114 499 96 499 c 0
EndSplineSet
Validated: 1
EndChar

StartChar: plusminus
Encoding: 177 177 105
Width: 384
Flags: HW
HStem: 51 64<0 320> 307 64<0 128 192 320>
VStem: 128 64<179 307 371 499>
LayerCount: 2
Fore
SplineSet
128 499 m 1
 192 499 l 1
 192 371 l 1
 320 371 l 1
 320 307 l 1
 192 307 l 1
 192 179 l 1
 128 179 l 1
 128 307 l 1
 0 307 l 1
 0 371 l 1
 128 371 l 1
 128 499 l 1
0 115 m 1
 320 115 l 1
 320 51 l 1
 0 51 l 1
 0 115 l 1
EndSplineSet
Validated: 1
EndChar

StartChar: acute
Encoding: 180 180 106
Width: 196
Flags: W
HStem: 499 128
VStem: 0 128
LayerCount: 2
Fore
SplineSet
64 627 m 1
 128 627 l 1
 32 499 l 1
 0 499 l 1
 64 627 l 1
EndSplineSet
Validated: 1
EndChar

StartChar: mu
Encoding: 181 181 107
Width: 320
Flags: HW
HStem: 179 64<72.307 184.015> 179 32<278.664 320> 415 20G<0 63.9971 191.995 255.998>
VStem: 0 63.9971<251.278 435> 0 31.9971<115.33 195> 191.995 64.0029<251.278 435>
LayerCount: 2
Fore
SplineSet
0 435 m 1x74
 64 435 l 1
 64 307 l 2
 64 259 80 243 128 243 c 0xb4
 176 243 192 259 192 307 c 2
 192 435 l 1
 256 435 l 1
 256 403 l 2
 256 227 272 211 320 211 c 1
 320 179 l 1x74
 240 179 224 195 208 243 c 1
 192 195 176 179 96 179 c 0xb4
 48 179 32 195 32 195 c 1
 32 179 l 2
 32 131 55 106 55 106 c 1
 61 100 64 91 64 83 c 0
 64 75 61 66 55 60 c 0
 48 54 40 51 32 51 c 0
 24 51 16 54 9 60 c 0
 3 66 0 75 0 83 c 2x6c
 0 435 l 1x74
EndSplineSet
Validated: 1
EndChar

StartChar: periodcentered
Encoding: 183 183 108
Width: 196
Flags: HW
HStem: 243 128<15.6147 112.386>
VStem: -0 128.001<258.615 355.385>
LayerCount: 2
Fore
SplineSet
128 307 m 0
 128 272 99 243 64 243 c 0
 29 243 -0 272 -0 307 c 0
 -0 342 29 371 64 371 c 0
 99 371 128 342 128 307 c 0
EndSplineSet
Validated: 1
EndChar

StartChar: guillemotright
Encoding: 187 187 109
Width: 320
Flags: HW
HStem: 179.001 255.999
VStem: 0 255.999
LayerCount: 2
Fore
SplineSet
192 435 m 1
 256 307 l 1
 192 179 l 1
 128 179 l 1
 192 307 l 1
 128 435 l 1
 192 435 l 1
64 435 m 1
 128 307 l 1
 64 179 l 1
 0 179 l 1
 64 307 l 1
 0 435 l 1
 64 435 l 1
EndSplineSet
Validated: 1
EndChar

StartChar: questiondown
Encoding: 191 191 110
Width: 384
Flags: HW
HStem: -13 64<79.6604 244.352> 243 128<130.502 192> 435 64<128 192>
VStem: 0 64<67.9963 227.554> 128 64<304.326 371 435 499> 256 64.5<64.1537 115>
LayerCount: 2
Fore
SplineSet
160 -13 m 0
 32 -13 0 19 0 147 c 0
 0 264 27 301 128 306 c 1
 128 371 l 1
 192 371 l 1
 192 243 l 1
 160 243 l 1
 153 243 l 2
 79 242 64 224 64 147 c 0
 64 67 80 51 160 51 c 0
 240 51 256 67 256 115 c 1
 320 115 l 1
 320 19 288 -13 160 -13 c 0
192 435 m 1
 128 435 l 1
 128 499 l 1
 192 499 l 1
 192 435 l 1
EndSplineSet
Validated: 1
EndChar

StartChar: uni00AD
Encoding: 173 173 111
Width: 256
Flags: HW
HStem: 307 64<0 191.999>
VStem: 0 191.999<307 371>
LayerCount: 2
Fore
SplineSet
0 371 m 1
 192 371 l 1
 192 307 l 1
 0 307 l 1
 0 371 l 1
EndSplineSet
Validated: 1
EndChar

StartChar: logicalnot
Encoding: 172 172 112
Width: 448
Flags: HW
HStem: 243.002 128<192.001 320> 307.002 64<0.000976562 192.001>
VStem: 192.001 128<243.002 307.002>
LayerCount: 2
Fore
SplineSet
0 371 m 1x60
 320 371 l 1
 320 243 l 1
 192 243 l 1xa0
 192 307 l 1
 0 307 l 1
 0 371 l 1x60
EndSplineSet
Validated: 1
EndChar

StartChar: dieresis
Encoding: 168 168 114
Width: 320
Flags: HW
HStem: 563 64<1.43968 62.5603 193.44 254.56>
VStem: -0 64<564.44 625.56> 192 64<564.44 625.56>
LayerCount: 2
Fore
SplineSet
32 627 m 0
 50 627 64 613 64 595 c 0
 64 577 50 563 32 563 c 0
 14 563 -0 577 -0 595 c 0
 -0 613 14 627 32 627 c 0
224 627 m 0
 242 627 256 613 256 595 c 0
 256 577 242 563 224 563 c 0
 206 563 192 577 192 595 c 0
 192 613 206 627 224 627 c 0
EndSplineSet
Validated: 1
EndChar

StartChar: ordfeminine
Encoding: 170 170 115
Width: 320
Flags: HW
HStem: 179.002 64<0 256.001> 307.002 64<65.8174 177.1> 435.002 64<65.9869 176.841> 563.002 64<23.6279 171.994>
VStem: 0.00292969 64<377.403 428.774> 192.003 64<307.002 346.252 376.906 429.098>
LayerCount: 2
Fore
SplineSet
128 627 m 0
 224 627 256 595 256 403 c 2
 256 307 l 1
 192 307 l 1
 192 346 l 1
 176 321 146 307 96 307 c 0
 32 307 0 339 0 403 c 0
 0 467 32 499 96 499 c 0
 144 499 173 486 190 463 c 1
 185 548 168 563 128 563 c 2
 0 563 l 1
 0 595 l 1
 0 595 64 627 128 627 c 0
128 435 m 0
 76 435 64 423 64 403 c 0
 64 383 76 371 128 371 c 0
 180 371 192 383 192 403 c 0
 192 423 180 435 128 435 c 0
0 243 m 1
 256 243 l 1
 256 179 l 1
 0 179 l 1
 0 243 l 1
EndSplineSet
Validated: 1
EndChar

StartChar: paragraph
Encoding: 182 182 116
Width: 448
Flags: HW
HStem: 563 64.0439<256.114 320.158>
VStem: 0 256.114<421.563 562.19> 192.071 64.043<-13.4346 370.869> 320.158 64.0439<-13.4346 563>
LayerCount: 2
Fore
SplineSet
128 627 m 1xd0
 192 627 l 1
 384 627 l 1
 384 -13 l 1
 320 -13 l 1
 320 563 l 1
 256 563 l 1
 256 -13 l 1
 192 -13 l 1
 192 371 l 1xb0
 128 371 l 1
 128 371 -0 371 0 499 c 0
 0 627 128 627 128 627 c 1xd0
EndSplineSet
Validated: 1
EndChar
